<svg width="24" height="24" viewBox="0 0 24 24" fill="none" xmlns="http://www.w3.org/2000/svg">
<path fill-rule="evenodd" clip-rule="evenodd" d="M1 12.0101C1 5.92171 5.92171 1 12.0101 1C18.0802 1 23.0201 5.92171 23.0019 12.0101C23.0019 16.8771 19.8483 20.9967 15.4735 22.455C14.9266 22.5644 14.7261 22.218 14.7261 21.9264C14.7261 21.8054 14.7281 21.594 14.7308 21.3115C14.7362 20.743 14.7443 19.8868 14.7443 18.9004C14.7443 17.8614 14.398 17.2052 13.997 16.8589C16.4578 16.5854 19.0281 15.6558 19.0281 11.4267C19.0281 10.2237 18.6088 9.23931 17.8979 8.47371C18.0073 8.20028 18.3901 7.07011 17.7885 5.55714C17.7885 5.55714 16.8589 5.26548 14.7626 6.68731C13.8876 6.45034 12.9397 6.32274 12.0101 6.32274C11.0804 6.32274 10.1325 6.45034 9.25754 6.68731C7.16126 5.26548 6.2316 5.55714 6.2316 5.55714C5.63006 7.07011 6.01286 8.20028 6.12223 8.47371C5.42954 9.23931 4.99206 10.2237 4.99206 11.4267C4.99206 15.6558 7.56229 16.6037 10.0049 16.8589C9.69503 17.1323 9.40337 17.6245 9.31223 18.3354C8.67423 18.627 7.08834 19.101 6.104 17.4239C6.104 17.4239 5.52069 16.3667 4.40874 16.2938C4.40874 16.2938 3.33326 16.2938 4.33583 16.9682C4.33583 16.9682 5.06497 17.2963 5.55714 18.5723C5.55714 18.5723 6.19514 20.541 9.25754 19.8848C9.25754 20.4808 9.26534 21.0613 9.27073 21.463C9.27359 21.6756 9.27577 21.8381 9.27577 21.9264C9.27577 22.218 9.07526 22.5644 8.5284 22.455C4.15354 20.9967 1 16.8771 1 12.0101ZM4.99191 16.8406C5.06482 16.8771 5.15596 16.8589 5.17419 16.8042C5.19242 16.7495 5.15596 16.6766 5.08305 16.6401C5.01014 16.6037 4.91899 16.6219 4.90076 16.6766C4.86431 16.7313 4.91899 16.8042 4.99191 16.8406ZM5.39294 17.2417C5.44762 17.3146 5.55699 17.351 5.61168 17.2964C5.66636 17.2599 5.64814 17.1505 5.57522 17.0594C5.50231 16.9865 5.41116 16.95 5.35648 17.0047C5.30179 17.0594 5.32002 17.1688 5.39294 17.2417ZM5.81219 17.8432C5.86688 17.9344 5.97625 17.989 6.04916 17.9344C6.12208 17.8797 6.12208 17.7703 6.04916 17.6792C5.99448 17.588 5.88511 17.5333 5.81219 17.588C5.73928 17.6245 5.73928 17.7521 5.81219 17.8432ZM6.35905 18.5177C6.46842 18.6088 6.59602 18.627 6.65071 18.5541C6.70539 18.4812 6.68716 18.3536 6.59602 18.2807C6.48665 18.1896 6.35905 18.1713 6.30436 18.2442C6.23145 18.2989 6.26791 18.4265 6.35905 18.5177ZM7.19756 18.9916C7.32516 19.0281 7.45276 18.9916 7.47099 18.9005C7.48922 18.8093 7.41631 18.7182 7.28871 18.6817C7.16111 18.6453 7.03351 18.6817 7.01528 18.7729C6.99705 18.8458 7.06996 18.9552 7.19756 18.9916ZM8.12722 19.1374C8.25482 19.1374 8.36419 19.0645 8.36419 18.9734C8.36419 18.8822 8.25482 18.8093 8.12722 18.8093C7.99962 18.8093 7.89025 18.8822 7.89025 18.9734C7.89025 19.0645 7.99962 19.1374 8.12722 19.1374ZM9.00219 19.0281C9.12979 19.0098 9.22093 18.9187 9.20271 18.8276C9.18448 18.7364 9.07511 18.6817 8.94751 18.7C8.81991 18.7182 8.72876 18.8093 8.74699 18.9005C8.76522 18.9916 8.87459 19.0463 9.00219 19.0281Z" fill="white"/>
</svg>
